<svg xmlns="http://www.w3.org/2000/svg" width="60" height="60" viewBox="0 0 60 60"><defs><style>.a{fill:#fff1e8;}.b{fill:#f08f28;}</style></defs><g transform="translate(-379.945 -100.231)"><circle class="a" cx="30" cy="30" r="30" transform="translate(379.945 100.232)"/><g transform="translate(-162.334 -20.334)"><path class="b" d="M584.311,140.075c0-.013-.005-.025-.009-.037l.008,0Zm0,0" transform="translate(-9.8 -2.697)"/><path class="b" d="M574.377,140.318a.567.567,0,1,1-.567-.567.567.567,0,0,1,.567.567Zm0,0" transform="translate(-6.067 -2.6)"/><path class="b" d="M576.944,140.318a.567.567,0,1,1-.567-.567.567.567,0,0,1,.567.567Zm0,0" transform="translate(-6.933 -2.6)"/><path class="b" d="M588.495,159.069l-4.5-6.547a2.245,2.245,0,0,0,.751-1.688,9.046,9.046,0,0,0-1.289-4.656l-2.149-3.58-.546-2.184a.568.568,0,0,0-.3-.37l-1.133-.567a.571.571,0,0,0-.254-.06h-.567v-1.133a.567.567,0,0,0-.332-.516l-3.073-1.4a4.531,4.531,0,0,0-7.349-3.334,2.833,2.833,0,0,0-3.663,1.653,15.756,15.756,0,0,0-.988,4.849l-.4,9.269v0a8.79,8.79,0,0,0-.06,1.023,8.971,8.971,0,0,0,.541,3.073l1.69,4.645h-5.738a3.86,3.86,0,0,0-1.221,7.522,19.063,19.063,0,0,0,6.031.978H584.82a4.459,4.459,0,0,0,3.675-6.984Zm-10.2-18.518h.65l.78.391.5,2.014a.56.56,0,0,0,.064.154l2.192,3.652a7.912,7.912,0,0,1,1.128,4.073,1.125,1.125,0,0,1-.272.737l-.359-.523-2-5.005a1.517,1.517,0,0,0-.636-.746l-.717-2.629a.564.564,0,0,0-.409-.4l-1.581-.4Zm-6.017,1.323.907-1.209a2.267,2.267,0,0,0,1.67.433l1.555,1.556h0a.579.579,0,0,0,.263.148l1.945.486.508,1.863a1.507,1.507,0,0,0-.682.423l-1.776-2a.559.559,0,0,0-.312-.179l-2.814-.563-.02,0a.525.525,0,0,0-.111-.011h-1.133Zm6.063,8.158-2.975-1.488a.572.572,0,0,0-.433-.03l-1.214.4a5.926,5.926,0,0,1-.2-3.848l.294-1.028,2.134.427,2.1,2.365h0Zm-4.617.08,1.345-.448,3.724,1.862h0a3.312,3.312,0,0,0,1.518,1.353l1.808,6.328-8.366-4.382a3.441,3.441,0,0,1-.03-4.713Zm7.6,2.184a.565.565,0,0,0-.366-.382,2.171,2.171,0,0,1-1.476-1.865l-.31-3.4a.393.393,0,0,1,.756-.183l2.025,5.064a.576.576,0,0,0,.06.111l1.081,1.572-1.32.66Zm-4.511-13.445a2.315,2.315,0,0,0-.052-.483l.618.281v1.2l-.721,1.444-.684-.684a2.266,2.266,0,0,0,.839-1.759Zm-2.3-1.506v.033c0-.013-.005-.024-.009-.037Zm.034,1.506v-.071a4.472,4.472,0,0,0,.4-.988,1.133,1.133,0,0,1-.4,2.192,1.117,1.117,0,0,1-.379-.066,1.685,1.685,0,0,0,.379-1.068Zm-3.967-5.667a3.4,3.4,0,0,1,3.4,3.265,1.7,1.7,0,0,0-2.151-.091,2.268,2.268,0,0,0-1.813-.907h-2.639a3.4,3.4,0,0,1,3.206-2.267Zm-3.4,3.4h2.833a1.135,1.135,0,0,1,1.133,1.134.567.567,0,0,0,1.133,0,.567.567,0,1,1,1.133,0v1.133a.567.567,0,0,1-.566.566h-.567v-.566h-1.133V143.2l-.567.756a2.847,2.847,0,0,1-2.267,1.133.567.567,0,0,1-.567-.566v-.842a2.2,2.2,0,0,0,1.077-1.426h1.19v-1.133h-1.134a1.7,1.7,0,0,1-1.7-1.7Zm0,5.1a2.837,2.837,0,0,0,.537.319,1.063,1.063,0,0,1-.537.693Zm-2.94-2.094a14.645,14.645,0,0,1,.917-4.5,1.7,1.7,0,0,1,1.709-1.1,4.5,4.5,0,0,0-.82,2.6v6.234a.565.565,0,0,0-.436.2l-.88,1.058a8.808,8.808,0,0,0-.729,1.011Zm.013,12.93a7.852,7.852,0,0,1,1.348-7.714l.711-.854h.3v.567a1.7,1.7,0,0,0,1.7,1.7,3.985,3.985,0,0,0,3.173-1.586l.51-.68h.665l-.23.807a7.064,7.064,0,0,0,.309,4.756,4.579,4.579,0,0,0-.432,5.265,7.48,7.48,0,0,1-5.3,2.2h-1.129Zm13.56,12.4h-7.8v-2.4l.418.114a.567.567,0,0,0,.55-.146,1.654,1.654,0,0,1,1.912-.311l4.98,2.49a.134.134,0,0,1-.06.254Zm7.009,0h-5.749a1.141,1.141,0,0,0,.007-.134,1.261,1.261,0,0,0-.7-1.133l-4.979-2.49a2.788,2.788,0,0,0-2.966.3l-3.692-1.007a12.282,12.282,0,0,0-4.778-.34l-2.222.278.14,1.124,2.223-.277a11.153,11.153,0,0,1,4.339.308l2.435.664v2.71h-4.931a17.889,17.889,0,0,1-5.672-.921,2.727,2.727,0,0,1,.862-5.313h6.341a.567.567,0,0,0,.567-.566H567a8.619,8.619,0,0,0,6-2.438l.005.005a.578.578,0,0,0,.138.1l11.9,6.233.525-1-2.07-1.084-1.415-4.953,1.651-.825,3.82,5.556a3.325,3.325,0,0,1-2.74,5.209Zm0,0" transform="translate(0 0)"/></g></g></svg>