<svg xmlns="http://www.w3.org/2000/svg" width="60" height="60" viewBox="0 0 60 60"><defs><style>.a{fill:#fff1e8;}.b{fill:#f08f28;}</style></defs><g transform="translate(-379.945 -100.231)"><circle class="a" cx="30" cy="30" r="30" transform="translate(379.945 100.232)"/><g transform="translate(395.796 116.231)"><g transform="translate(0.149 0)"><path class="b" d="M28.023,16.259a.558.558,0,0,0-.65.446,13.157,13.157,0,0,1-12.94,10.74h0a13.165,13.165,0,1,1,0-26.33h0a13.114,13.114,0,0,1,4.144.665A3.777,3.777,0,0,0,17.454,4.51c0,3.76,5.161,6.259,5.38,6.364a.558.558,0,0,0,.24.054h.039a.558.558,0,0,0,.224-.054A14.138,14.138,0,0,0,26.4,8.8a13.064,13.064,0,0,1,.969,3.048.558.558,0,0,0,1.1-.205,14.181,14.181,0,0,0-1.233-3.69,5.322,5.322,0,0,0,1.461-3.44A3.572,3.572,0,0,0,25.18.81a3.245,3.245,0,0,0-2.107.75A3.235,3.235,0,0,0,20.968.81a3.436,3.436,0,0,0-1.211.218A14.2,14.2,0,0,0,14.429,0h0A14.279,14.279,0,0,0,4.333,24.378a14.19,14.19,0,0,0,10.1,4.184h0A14.274,14.274,0,0,0,28.469,16.91.558.558,0,0,0,28.023,16.259ZM22.654,2.7a.557.557,0,0,0,.426.188A.563.563,0,0,0,23.5,2.7l.014-.015a2.156,2.156,0,0,1,1.668-.757,2.47,2.47,0,0,1,2.4,2.585c0,2.664-3.55,4.735-4.494,5.239-.95-.5-4.514-2.57-4.514-5.239a2.47,2.47,0,0,1,2.4-2.585A2.162,2.162,0,0,1,22.654,2.7Z" transform="translate(-0.149 0)"/><path class="b" d="M491.194,247.582a.558.558,0,1,0-.205.677A.563.563,0,0,0,491.194,247.582Z" transform="translate(-462.789 -233.446)"/><path class="b" d="M302.454,186.277l.968-.968.968.968a.558.558,0,0,0,.789-.789l-1.362-1.362a.558.558,0,0,0-.789,0l-1.362,1.362a.558.558,0,1,0,.789.789Z" transform="translate(-284.692 -173.7)"/><path class="b" d="M142.314,186.276l.968-.968.968.968a.558.558,0,0,0,.789-.789l-1.362-1.362a.558.558,0,0,0-.789,0l-1.362,1.362a.558.558,0,1,0,.789.789Z" transform="translate(-133.484 -173.699)"/><path class="b" d="M106.412,260.959v.668a8.339,8.339,0,0,0,.359,2.427l0,.014a8.3,8.3,0,0,0,3.939,4.856h0a8.348,8.348,0,0,0,8.064,0h0a8.36,8.36,0,0,0,3.94-4.856l0-.014a8.338,8.338,0,0,0,.359-2.427v-.668a.558.558,0,0,0-.558-.558H106.97A.558.558,0,0,0,106.412,260.959Zm8.336,7.888a7.24,7.24,0,0,1-2.919-.615,3.878,3.878,0,0,1,5.66-.189q.092.092.177.19A7.241,7.241,0,0,1,114.748,268.847Zm4.338-1.448q-.2.153-.419.293a4.993,4.993,0,0,0-7.838,0,7.319,7.319,0,0,1-2.728-3.242H121.4A7.3,7.3,0,0,1,119.086,267.4Zm-11.559-5.883h14.441v.11a7.246,7.246,0,0,1-.2,1.707H107.731a7.246,7.246,0,0,1-.2-1.707Z" transform="translate(-100.484 -245.875)"/></g></g></g></svg>