<svg xmlns="http://www.w3.org/2000/svg" width="60" height="60" viewBox="0 0 60 60"><defs><style>.a{fill:#fff1e8;}.b{fill:#f08f28;}</style></defs><g transform="translate(-379.945 -100.231)"><circle class="a" cx="30" cy="30" r="30" transform="translate(379.945 100.232)"/><g transform="translate(394.72 100.005)"><path class="b" d="M129.461,17.732a1.772,1.772,0,1,0-1.772,1.772A1.774,1.774,0,0,0,129.461,17.732Zm-1.772.591a.591.591,0,1,1,.591-.591A.591.591,0,0,1,127.689,18.322Z" transform="translate(-118.48 0)"/><path class="b" d="M229.461,97.732a1.772,1.772,0,1,0-1.772,1.772A1.774,1.774,0,0,0,229.461,97.732Zm-1.772.591a.591.591,0,1,1,.591-.591A.591.591,0,0,1,227.689,98.322Z" transform="translate(-212.574 -75.275)"/><path class="b" d="M106.508,81.866h.591V86a.591.591,0,0,0,.591.591h2.362a.591.591,0,0,0,.591-.591V81.866h.591a.591.591,0,0,0,.591-.591V77.732a1.774,1.774,0,0,0-1.772-1.772h-2.362a1.774,1.774,0,0,0-1.772,1.772v3.544A.591.591,0,0,0,106.508,81.866Zm.591-4.134a.591.591,0,0,1,.591-.591h2.362a.591.591,0,0,1,.591.591v2.953h-.591a.591.591,0,0,0-.591.591V85.41h-1.181V81.276a.591.591,0,0,0-.591-.591H107.1Z" transform="translate(-99.661 -56.456)"/><path class="b" d="M329.461,17.732a1.772,1.772,0,1,0-1.772,1.772A1.774,1.774,0,0,0,329.461,17.732Zm-1.772.591a.591.591,0,1,1,.591-.591A.591.591,0,0,1,327.689,18.322Z" transform="translate(-306.668 0)"/><path class="b" d="M306.507,84.23h.591V86a.591.591,0,0,0,.591.591h2.362a.591.591,0,0,0,.591-.591V84.23h.591a.591.591,0,0,0,.582-.688l-.987-5.922a1.985,1.985,0,0,0-3.916,0l-.987,5.922a.59.59,0,0,0,.583.688Zm1.57-6.416a.8.8,0,0,1,1.586,0l.872,5.234h-.484a.591.591,0,0,0-.591.591v1.772h-1.181V83.639a.591.591,0,0,0-.591-.591H307.2Z" transform="translate(-287.848 -56.457)"/><path class="b" d="M226.508,161.866h2.362a.591.591,0,0,0,.591-.591v-3.544a1.772,1.772,0,1,0-3.544,0v3.544A.591.591,0,0,0,226.508,161.866Zm.591-4.134a.591.591,0,1,1,1.181,0v2.953H227.1Z" transform="translate(-212.574 -131.731)"/><circle class="b" cx="0.591" cy="0.591" r="0.591" transform="translate(14.524 39.585)"/><path class="b" d="M28.591,187.123A1.983,1.983,0,0,0,26.3,188.73s-.747,4.218-.761,4.278c-.025-.042-.052-.084-.081-.125a2.066,2.066,0,0,0-2.879-.508L19.4,194.421a3.765,3.765,0,0,0-4.281,2.3,3.5,3.5,0,0,0-1.424-1.756,3.511,3.511,0,0,0-2.857-.544l-3.183-2.045a2.066,2.066,0,0,0-2.878.508c-.029.041-.055.083-.081.126-.015-.061-.028-.122-.039-.184l-.722-4.1a1.98,1.98,0,0,0-3.9.688l.879,4.988A5.277,5.277,0,0,0,3.1,197.838l5.952,3.971a1.773,1.773,0,0,1,.751,1.448v1.488a.591.591,0,0,0,.591.591h9.45a.591.591,0,0,0,.591-.591v-1.488a1.773,1.773,0,0,1,.751-1.448l5.958-3.971a5.28,5.28,0,0,0,2.186-3.431l.879-4.988a1.979,1.979,0,0,0-1.614-2.295Zm.45,2.09-.879,4.988a4.106,4.106,0,0,1-1.695,2.665l-5.958,3.971a2.955,2.955,0,0,0-1.26,2.419v.9H15.706v-.3a.591.591,0,1,0-1.181,0v.3H10.981v-.9a2.955,2.955,0,0,0-1.26-2.419l-5.953-3.971A4.159,4.159,0,0,1,2.074,194.2l-.879-4.989a.8.8,0,0,1,1.574-.277l.722,4.1a4.1,4.1,0,0,0,1.728,2.687l3.027,1.923a.591.591,0,0,0,.633-1l-2.97-1.886a.886.886,0,0,1,1.066-1.413l3.448,2.216a.59.59,0,0,0,.5.063,2.345,2.345,0,0,1,2.091.31,2.567,2.567,0,0,1,1.166,1.686,7.344,7.344,0,0,1,.233,1.019.588.588,0,0,0,.583.5h.237a.588.588,0,0,0,.583-.5,7.341,7.341,0,0,1,.233-1.019,2.567,2.567,0,0,1,1.166-1.686,2.345,2.345,0,0,1,2.091-.31.59.59,0,0,0,.5-.063l3.453-2.216a.886.886,0,0,1,1.064,1.415l-2.973,1.884a.591.591,0,1,0,.632,1c2.489-1.578,3.045-1.93,3.061-1.941a4.108,4.108,0,0,0,1.7-2.669l.722-4.1a.8.8,0,0,1,1.574.277Z" transform="translate(0 -161.026)"/></g></g></svg>