<svg xmlns="http://www.w3.org/2000/svg" width="60" height="60" viewBox="0 0 60 60"><defs><style>.a{fill:#fff1e8;}.b{fill:#f08f28;stroke:#fff1e8;stroke-miterlimit:10;stroke-width:0.5px;}</style></defs><g transform="translate(-379.945 -100.231)"><circle class="a" cx="30" cy="30" r="30" transform="translate(379.945 100.232)"/><g transform="translate(399.49 112.392)"><path class="b" d="M422.29,152.593c0,.568-1.155,1.851-2.361,2.853-1.207-1-2.361-2.284-2.361-2.853a1.1,1.1,0,0,1,1.076-1.121,1.045,1.045,0,0,1,.775.344.694.694,0,0,0,1.02,0,1.046,1.046,0,0,1,.775-.344,1.1,1.1,0,0,1,1.076,1.121Zm-2.361-2.139a2.438,2.438,0,0,0-1.285-.369,2.488,2.488,0,0,0-2.463,2.508c0,.785.566,1.729,1.732,2.889a18.469,18.469,0,0,0,1.6,1.4.7.7,0,0,0,.843,0,18.335,18.335,0,0,0,1.6-1.4c1.166-1.159,1.732-2.1,1.732-2.889a2.488,2.488,0,0,0-2.463-2.508,2.438,2.438,0,0,0-1.285.369Z" transform="translate(-409.428 -126.064)"/><path class="b" d="M411.381,151.9a6.225,6.225,0,0,1-.628-2.742v-.385a2.906,2.906,0,0,0,.548-.526l2.657-3.307a4.746,4.746,0,0,1,2-1.07,2.036,2.036,0,0,0,1.391-1.923,2.588,2.588,0,0,0-.895-1.915,1.867,1.867,0,0,0-1.512-.476,7.242,7.242,0,0,0-4.881,3.161.694.694,0,1,0,1.192.711,5.864,5.864,0,0,1,3.9-2.5.542.542,0,0,1,.393.155,1.217,1.217,0,0,1,.414.856.649.649,0,0,1-.442.615,5.706,5.706,0,0,0-2.648,1.518l-2.657,3.307a1.289,1.289,0,0,1-1.036.517.511.511,0,0,1-.392-.179c-.667-.729-.535-3.106-.478-4.121.009-.157.016-.3.022-.422.271-6.27,2.717-8.055,6.573-8.9l.239-.053a.694.694,0,1,0-.3-1.355l-.239.052a9.166,9.166,0,0,0-5.532,3.049c-1.313,1.644-1.989,3.916-2.13,7.151-.005.118-.012.254-.021.4-.107,1.923-.139,4.064.841,5.135a1.9,1.9,0,0,0,1.37.629h.083c.049,0,.1,0,.145,0a7.605,7.605,0,0,0,.766,3.227.694.694,0,0,0,1.248-.607Z" transform="translate(-406.876 -121.335)"/><path class="b" d="M414.117,161.171a.694.694,0,0,0-1.013.949l.03.031a.693.693,0,0,0,1-.96l-.017-.02Z" transform="translate(-408.532 -129.044)"/><path class="b" d="M424.164,133.376a.693.693,0,0,0,.52.831,9.065,9.065,0,0,1,2.846,1.19.694.694,0,1,0,.745-1.171A10.443,10.443,0,0,0,425,132.855a.693.693,0,0,0-.831.521Z" transform="translate(-411.612 -121.334)"/><path class="b" d="M431.047,137.822a.694.694,0,1,0,1-.958l-.037-.038a.694.694,0,0,0-1,.965l.031.032Z" transform="translate(-413.442 -122.369)"/><path class="b" d="M429.386,139.642a.694.694,0,1,0-1.208.682,8.879,8.879,0,0,1,.756,4.465V146.9a11.175,11.175,0,0,1-3.223,8.343A7.743,7.743,0,0,1,423,156.574l-.136.036a1.107,1.107,0,0,1-.533-2.148,6.8,6.8,0,0,0,2.63-1.269c1.832-1.7,1.737-4.331,1.653-6.654-.017-.5-.035-.973-.035-1.436a.679.679,0,0,0-.015-.144,2.6,2.6,0,0,0,.285-.828c.21-1.294-.63-2.388-1.306-3.267a3.814,3.814,0,0,1-.674-1.059.694.694,0,1,0-1.388,0,3.413,3.413,0,0,0,.961,1.9c.539.7,1.15,1.5,1.036,2.2a2.343,2.343,0,0,1-1.15,1.39.694.694,0,1,0,.777,1.15l.112-.079c0,.073.005.147.008.22.076,2.124.155,4.318-1.211,5.587a5.762,5.762,0,0,1-2.081.954,2.5,2.5,0,0,0-1.269,3.918,11.188,11.188,0,0,1-1.281.11,6.293,6.293,0,0,1-2.929-.723.694.694,0,1,0-.648,1.227,7.692,7.692,0,0,0,3.577.883,16.345,16.345,0,0,0,3.811-.591c.046-.011.094-.024.14-.038l.044-.012.01,0,.019-.005a8.892,8.892,0,0,0,3.245-1.634,12.356,12.356,0,0,0,3.667-9.361v-2.114a10.09,10.09,0,0,0-.936-5.147Z" transform="translate(-409.224 -123.054)"/><path class="b" d="M413.817,118.966a1.466,1.466,0,0,1,1.389-.575,5.4,5.4,0,0,0-1.462,2.213,1.467,1.467,0,0,1,.073-1.638Zm9,3.253a3.935,3.935,0,0,1-2.5-1.72.694.694,0,0,0-1.158-.064c-1.039,1.406-3.3,1.758-4.331,1.846a4,4,0,0,1,7.988-.062Zm-3.993,5a4,4,0,0,1-3.971-3.55,8.542,8.542,0,0,0,4.8-1.735,5.719,5.719,0,0,0,3.145,1.7,4,4,0,0,1-3.976,3.587Zm-5.537-5.09a.688.688,0,0,0,.156.087c0,.052,0,.1,0,.154v.853a5.385,5.385,0,0,0,10.77,0v-.853a5.382,5.382,0,0,0-7.623-4.9,2.853,2.853,0,0,0-3.3,4.655Z" transform="translate(-408.32 -116.987)"/></g></g></svg>