<svg xmlns="http://www.w3.org/2000/svg" width="60" height="60" viewBox="0 0 60 60"><defs><style>.a{fill:#fff1e8;}.b{fill:#f08f28;}</style></defs><g transform="translate(-379.945 -100.231)"><circle class="a" cx="30" cy="30" r="30" transform="translate(379.945 100.232)"/><g transform="translate(302.945 112.231)"><g transform="translate(96 0)"><path class="b" d="M208.752,7.861a.556.556,0,1,0-.525-.372A.556.556,0,0,0,208.752,7.861Z" transform="translate(-200.399 -6.279)"/><path class="b" d="M128.556,35.348a.557.557,0,0,0,.556-.556V28.677a7.8,7.8,0,0,1,3.359-6.405.556.556,0,1,0-.632-.914,8.957,8.957,0,0,0-2.789,3.123,8.847,8.847,0,0,0-.776,2,8.946,8.946,0,0,0-.274,2.2v6.115A.557.557,0,0,0,128.556,35.348Z" transform="translate(-125.776 -19.782)"/><path class="b" d="M240.025,1.131c.184-.013.372-.019.557-.019A7.782,7.782,0,0,1,248.365,8.9V15.01a.556.556,0,0,0,1.112,0V8.895A8.888,8.888,0,0,0,240.582,0c-.211,0-.425.008-.635.022a.556.556,0,0,0,.079,1.109Z" transform="translate(-229.463 0)"/><ellipse class="b" cx="1" cy="0.5" rx="1" ry="0.5" transform="translate(13.191 10.79)"/><ellipse class="b" cx="1" cy="0.5" rx="1" ry="0.5" transform="translate(7.191 10.79)"/><path class="b" d="M117.463,61.01l-3.111-6.673-.007-.014a2.765,2.765,0,0,0-2.486-1.536H109.9a.556.556,0,0,1,0-1.112h.556a2.226,2.226,0,0,0,2.224-2.224V45.559a.556.556,0,0,0-.556-.556,13.209,13.209,0,0,1-7.227-1.954V40.556a.556.556,0,0,0-1.112,0v2.606a6.788,6.788,0,0,1-1.916,1.9.556.556,0,0,0-.307.5v3.892a2.226,2.226,0,0,0,2.224,2.224h.556a.556.556,0,1,1,0,1.112h-1.961c-.061,0-.122,0-.183.006a.54.54,0,0,0-.289.035,2.761,2.761,0,0,0-2.014,1.5l-.012.026-2.068,4.737a.55.55,0,0,0-.141.322l-1.624,3.718a.557.557,0,0,0-.046.222v1.668a2.783,2.783,0,0,0,2.78,2.78h.031a4.447,4.447,0,0,0,7.562,3.662l1.045-1.045a.556.556,0,0,0-.786-.786l-1.045,1.045A3.334,3.334,0,0,1,99.933,67.8h4.128a2.5,2.5,0,0,0,0-5h-.031l.757-.757a3.316,3.316,0,0,1,1.462-.855.546.546,0,0,0,.054-.015,3.356,3.356,0,0,1,.842-.107,3.314,3.314,0,0,1,2.359.977,3.348,3.348,0,0,1,.934,2.893.556.556,0,1,0,1.1.177c.012-.076.022-.151.03-.227a4.408,4.408,0,0,0,1.54-1.03,4.627,4.627,0,0,0,0-6.394,4.327,4.327,0,0,0-6.247,0,4.55,4.55,0,0,0-1.266,2.773A4.419,4.419,0,0,0,104,61.25l-1.545,1.544h-1.723l1.336-3.117a.556.556,0,1,0-1.022-.438l-.274.64-1.784-.714,1.9-4.357a1.662,1.662,0,0,1,.715-.723,8.907,8.907,0,0,0,2.339,4.654.556.556,0,1,0,.786-.786,7.831,7.831,0,0,1-2.027-4.054h1.634a1.668,1.668,0,0,0,0-3.336h-.556a1.113,1.113,0,0,1-1.112-1.112V45.88a8.015,8.015,0,0,0,1.8-1.778,14.178,14.178,0,0,0,7.1,2v3.344a1.113,1.113,0,0,1-1.112,1.112H109.9a1.668,1.668,0,0,0,0,3.336h1.961a1.659,1.659,0,0,1,1.489.916l3.108,6.666a2.213,2.213,0,0,1-.267,2.313l-2.861,3.641a2.975,2.975,0,0,1-3.736.788l.93-1.2a.556.556,0,1,0-.878-.683l-1.3,1.668a.556.556,0,0,0,.091.775,4.052,4.052,0,0,0,2.543.9,4.154,4.154,0,0,0,.477-.028,4.1,4.1,0,0,0,1.218-.336v2.926a.556.556,0,0,0,1.112,0V68.908a.553.553,0,0,0-.071-.272,4.137,4.137,0,0,0,.484-.516l2.86-3.641A3.32,3.32,0,0,0,117.463,61.01Zm-9.806-2.781a3.215,3.215,0,0,1,4.651,0,3.507,3.507,0,0,1,0,4.846,3.312,3.312,0,0,1-.776.592,4.441,4.441,0,0,0-4.781-3.7A3.432,3.432,0,0,1,107.657,58.229ZM100.336,60.9l-.811,1.892H98.78a.556.556,0,1,0,0,1.112h5.281a1.39,1.39,0,1,1,0,2.78H98.78a1.67,1.67,0,0,1-1.668-1.668V63.465l1.433-3.281Z" transform="translate(-96 -37.22)"/></g></g></g></svg>