<svg xmlns="http://www.w3.org/2000/svg" width="60" height="60" viewBox="0 0 60 60"><defs><style>.a{fill:#fff1e8;}.b{fill:#f08f28;stroke:#fff1e8;stroke-width:0.5px;}</style></defs><g transform="translate(-379.945 -100.231)"><circle class="a" cx="30" cy="30" r="30" transform="translate(379.945 100.232)"/><g transform="translate(391.113 36.647)"><g transform="translate(0 78.255)"><path class="b" d="M36.927,102.934H32.912a3.433,3.433,0,0,0-2.379-5.372.736.736,0,1,0-.187,1.459,1.964,1.964,0,0,1-.25,3.913H24.489v-1.471h1.834a.736.736,0,0,0,0-1.471H21.564l1.222-1.941.994.128a.748.748,0,0,0,.095.006.736.736,0,0,0,.093-1.465l-.774-.1L24.2,93.847a5.642,5.642,0,0,0-2.158-6.613l-.894-.6a3.835,3.835,0,0,0,1.134-3.707l-.206-.858a3.83,3.83,0,0,0-4.126-2.912,2.685,2.685,0,0,0-4.617,2.41c.011.046.024.09.038.135a3.115,3.115,0,0,0-1.421.8l-3.027,3a2.114,2.114,0,0,0-.4.55,3.656,3.656,0,0,0-2.1-.658.736.736,0,0,0-.736.736v5.834l-1.5,8.227a3.562,3.562,0,0,0,.627,2.742H.736a.736.736,0,1,0,0,1.471H36.927a.736.736,0,1,0,0-1.471ZM22.815,93.346l-1.233,3.4-3.532-.7a4.892,4.892,0,0,0,.5-4.183l-.746-2.2a2.477,2.477,0,0,0,2.232-2.006l1.186.8a4.173,4.173,0,0,1,1.6,4.891ZM10.546,95.552V92.122a4.216,4.216,0,0,0-.3-3.024,2.1,2.1,0,0,0,1.464-.449l2.368-1.881,1.586,1.978a2.471,2.471,0,0,0,.406.4l1.081,3.192a3.422,3.422,0,0,1-.772,3.47,3.889,3.889,0,0,0-2.84,1.578l-3.32.928A11.822,11.822,0,0,0,10.546,95.552ZM20.771,82.944l.078.324a2.363,2.363,0,0,1-1.152,2.61,2.5,2.5,0,0,0-.358-.446l-1.082-1.068a1.853,1.853,0,0,1,1.3-1.127Zm-5.112-3.186a1.221,1.221,0,0,1,1.332.568.735.735,0,0,0,.811.344l.01,0a2.358,2.358,0,0,1,2.434.889l-1.036.249a3.319,3.319,0,0,0-2.049,1.477l-.792-.781a3.114,3.114,0,0,0-1.359-.785,1.213,1.213,0,0,1,.648-1.957Zm-5.7,6.79,3.027-3a1.679,1.679,0,0,1,2.353,0l2.97,2.93a1.006,1.006,0,1,1-1.491,1.345h0L14.77,85.275a.736.736,0,0,0-1.031-.116L10.8,87.5a.635.635,0,0,1-.841-.948Zm-2.8.445a2.21,2.21,0,0,1,1.47,2.08.736.736,0,0,0,.155.451A2.586,2.586,0,0,1,9.22,91.28H7.16ZM7.7,102.934a2.1,2.1,0,0,1-2.068-2.479l1.4-7.7H9.074v2.8a10.349,10.349,0,0,1-.635,3.575.735.735,0,0,0,.889.962L14.2,98.729a.736.736,0,0,0,.425-.318,2.432,2.432,0,0,1,2.01-1.146L21,98.132l-1.4,2.219a5.5,5.5,0,0,1-4.679,2.583Zm11.955,0a1.989,1.989,0,0,1,1.918-1.471h1.44v1.471Z" transform="translate(0 -78.255)"/><path class="b" d="M359.9,336.46a.736.736,0,1,0-.52-.216A.741.741,0,0,0,359.9,336.46Z" transform="translate(-332.74 -316.103)"/></g></g></g></svg>