<svg xmlns="http://www.w3.org/2000/svg" width="60" height="60" viewBox="0 0 60 60"><defs><style>.a{fill:#fff1e8;}.b{fill:#f08f28;}</style></defs><g transform="translate(-379.945 -100.231)"><circle class="a" cx="30" cy="30" r="30" transform="translate(379.945 100.232)"/><g transform="translate(287.945 113.232)"><g transform="translate(112)"><circle class="b" cx="0.544" cy="0.544" r="0.544" transform="translate(6.574 9.788)"/><path class="b" d="M130.78,10.585a2.7,2.7,0,0,0-1.922-.8V8.837A2.858,2.858,0,0,0,126,5.982h-.952a.544.544,0,0,1-.544-.544V2.719a2.719,2.719,0,0,0-5.438,0V5.438a.544.544,0,0,1-.544.544h-.952a2.858,2.858,0,0,0-2.855,2.855v.952A2.72,2.72,0,0,0,112,12.508v1.631a.543.543,0,0,0,.544.544h18.489a.543.543,0,0,0,.544-.544V12.508A2.7,2.7,0,0,0,130.78,10.585Zm-.291,3.01h-1.631V12.508a.544.544,0,1,0-1.088,0V13.6h-1.088V12.508a.544.544,0,1,0-1.088,0V13.6h-1.088V12.508a.544.544,0,0,0-1.088,0V13.6h-1.088V12.508a.544.544,0,1,0-1.088,0V13.6h-1.088V12.508a.544.544,0,1,0-1.088,0V13.6h-1.088V12.508a.544.544,0,1,0-1.088,0V13.6h-1.088V12.508a.544.544,0,1,0-1.088,0V13.6h-1.631V12.508a1.637,1.637,0,0,1,1.631-1.631h2.223a.544.544,0,0,0,0-1.088h-1.136V8.837a1.769,1.769,0,0,1,1.767-1.767h.952a1.633,1.633,0,0,0,1.631-1.631V2.719a1.631,1.631,0,1,1,3.263,0V5.438a1.633,1.633,0,0,0,1.631,1.631H126a1.769,1.769,0,0,1,1.767,1.767v.952h-6.477a.544.544,0,0,0,0,1.088h7.565a1.637,1.637,0,0,1,1.631,1.631Z" transform="translate(-112)"/><path class="b" d="M130.14,232.047a.544.544,0,0,0-.27.721,6.833,6.833,0,0,1,.619,2.85v2.9a19.884,19.884,0,0,1-8.135-1.709.534.534,0,0,0-.205-.041.544.544,0,0,0-.207,1.047,23.161,23.161,0,0,0,3.691,1.238,22.786,22.786,0,0,0,4.856.554v6.8a3.539,3.539,0,0,1-3.535,3.535H116.622a3.539,3.539,0,0,1-3.535-3.535v-10.6a21.206,21.206,0,0,1,4.842.58.544.544,0,1,0,.262-1.055,19.536,19.536,0,0,0-2.5-.449c-.807-.093-1.646-.147-2.55-.163a6.851,6.851,0,0,1,.56-1.956.544.544,0,0,0-.99-.45,7.921,7.921,0,0,0-.7,2.82.511.511,0,0,0-.009.2c0,.094-.006.189-.006.283v10.791a4.628,4.628,0,0,0,4.622,4.622h10.332a4.628,4.628,0,0,0,4.622-4.622V235.618a7.914,7.914,0,0,0-.716-3.3.544.544,0,0,0-.72-.27Z" transform="translate(-112 -216.228)"/><path class="b" d="M144.544,305.088h2.175a.544.544,0,0,0,0-1.088h-2.175a.544.544,0,1,0,0,1.088Z" transform="translate(-141.825 -283.335)"/><path class="b" d="M148.35,336h-3.807a.544.544,0,1,0,0,1.088h3.807a.544.544,0,1,0,0-1.088Z" transform="translate(-141.825 -313.16)"/><path class="b" d="M144.544,369.088h2.175a.544.544,0,0,0,0-1.088h-2.175a.544.544,0,0,0,0,1.088Z" transform="translate(-141.825 -342.985)"/><path class="b" d="M148.894,400.544a.544.544,0,0,0-.544-.544h-3.807a.544.544,0,1,0,0,1.088h3.807A.544.544,0,0,0,148.894,400.544Z" transform="translate(-141.825 -372.81)"/><path class="b" d="M144.544,432a.544.544,0,1,0,0,1.088h2.175a.544.544,0,1,0,0-1.088Z" transform="translate(-141.825 -402.635)"/><path class="b" d="M223.983,291.384a.538.538,0,0,0,.188.033.544.544,0,0,0,.188-1.054.556.556,0,0,0-.188-.033.544.544,0,0,0-.188,1.054Z" transform="translate(-216.038 -270.595)"/></g></g></g></svg>