<svg xmlns="http://www.w3.org/2000/svg" width="60" height="60" viewBox="0 0 60 60"><defs><style>.a{fill:#fff1e8;}.b{fill:#f08f28;}</style></defs><g transform="translate(-379.945 -100.231)"><circle class="a" cx="30" cy="30" r="30" transform="translate(379.945 100.232)"/><g transform="translate(318.639 112.917)"><g transform="translate(79.398 0)"><path class="b" d="M157.854,435.32h-3.659a.783.783,0,0,0-.782.782v1.331a.783.783,0,0,0,.782.782h3.659a.783.783,0,0,0,.782-.782V436.1A.783.783,0,0,0,157.854,435.32Zm-.218,1.895h-3.223v-.9h3.223Z" transform="translate(-148.48 -406.304)"/><g transform="translate(0 0)"><path class="b" d="M204.65,219.445a.5.5,0,0,0-.5.5v.9a.5.5,0,0,0,1,0v-.9A.5.5,0,0,0,204.65,219.445Z" transform="translate(-195.835 -204.818)"/><path class="b" d="M294.136,219.445a.5.5,0,0,0-.5.5v.9a.5.5,0,0,0,1,0v-.9A.5.5,0,0,0,294.136,219.445Z" transform="translate(-279.356 -204.818)"/><path class="b" d="M102.661,31.637c-.008-.027-.015-.054-.023-.081a9.554,9.554,0,0,0-2.975-4.565c-.333-.284-.669-.543-1-.779q-.559-.4-1.153-.739a14.056,14.056,0,0,0-3.162-1.38,1.47,1.47,0,0,1-.63-.234,7.724,7.724,0,0,0,2.235-1.2c.06-.015.853-.311.886-.324,2.947-1.171,4.841-2.793,5.631-4.821a8.494,8.494,0,0,0-.335-6.068A20.327,20.327,0,0,0,99.139,6.2a13.407,13.407,0,0,0-1.667-1.772A11.874,11.874,0,0,0,98,2.243,1.96,1.96,0,0,0,96.055,0H86.337A1.96,1.96,0,0,0,84.4,2.243a11.876,11.876,0,0,0,.523,2.186A12.822,12.822,0,0,0,83.253,6.2a20.324,20.324,0,0,0-2.993,5.246,8.494,8.494,0,0,0-.335,6.068c.79,2.028,2.684,3.65,5.631,4.821.033.013.827.31.888.325a7.775,7.775,0,0,0,2.239,1.2,1.2,1.2,0,0,1-.583.222,15,15,0,0,0-5.37,2.91,9.611,9.611,0,0,0-2.588,3.5,9.131,9.131,0,0,0-.7,2.674l0,.02s0,.008,0,.013q-.023.23-.034.461a.5.5,0,0,0,.5.524h22.6a.5.5,0,0,0,.5-.524,8.981,8.981,0,0,0-.332-2.018Zm-21.8-14.487a7.549,7.549,0,0,1,.34-5.357,19.373,19.373,0,0,1,2.843-4.977,12.154,12.154,0,0,1,1.284-1.41c.016.033.031.068.047.1a3.158,3.158,0,0,0,2.847,1.756H88.5a.5.5,0,1,0,0-1h-.278a2.164,2.164,0,0,1-1.951-1.2,9.991,9.991,0,0,1-.88-2.964A.961.961,0,0,1,86.337,1h9.717a.961.961,0,0,1,.951,1.1,9.99,9.99,0,0,1-.88,2.964,2.163,2.163,0,0,1-1.951,1.2H90.848a.5.5,0,1,0,0,1h3.326a3.157,3.157,0,0,0,2.847-1.756c.016-.032.03-.066.046-.1a12.608,12.608,0,0,1,1.286,1.408,19.374,19.374,0,0,1,2.842,4.976,7.549,7.549,0,0,1,.34,5.357,7.425,7.425,0,0,1-3.917,3.744,7.824,7.824,0,0,0,1.164-2.622,2.253,2.253,0,0,0,.209-4.479v-.787a.494.494,0,0,0-.445-.5.446.446,0,0,0-.1,0A12.289,12.289,0,0,1,90.6,10.9,6.913,6.913,0,0,1,88.44,8.834a.5.5,0,0,0-.9.052c-1.141,2.74-2.821,3.387-3.721,3.528a.528.528,0,0,0-.416.571v0s0,.338,0,.8a2.253,2.253,0,0,0,.2,4.479,7.761,7.761,0,0,0,1.16,2.619,7.421,7.421,0,0,1-3.912-3.742ZM97.992,15a7.892,7.892,0,0,1-5.045,2.6,11.167,11.167,0,0,1-3.5,0A7.972,7.972,0,0,1,84.4,15V13.315a5.881,5.881,0,0,0,3.7-3.261,8.815,8.815,0,0,0,1.905,1.655,12.534,12.534,0,0,0,6.968,1.857c.328,0,.668-.01,1.018-.03Zm.962,2.243c.025-.252.037-.509.037-.764V14.815a1.253,1.253,0,0,1-.037,2.428Zm-15.518,0a1.252,1.252,0,0,1-.034-2.429c0,.845,0,1.665,0,1.665C83.4,16.734,83.412,16.991,83.437,17.243Zm3.186,4.264a6.777,6.777,0,0,1-2.189-4.341c-.023-.226-.034-.458-.034-.687v-.048a9.6,9.6,0,0,0,4.889,2.152,12.169,12.169,0,0,0,3.815,0,9.6,9.6,0,0,0,4.889-2.152v.048a6.874,6.874,0,0,1-.034.687,6.8,6.8,0,0,1-11.335,4.341ZM80.44,33.179a8.14,8.14,0,0,1,.6-2.255,8.608,8.608,0,0,1,2.338-3.171c.284-.242.571-.465.856-.67a14.26,14.26,0,0,1,3.382-1.793,7.764,7.764,0,0,1,1.015-.311l.026-.006,1.609,3.174a1.043,1.043,0,0,0,1.861,0l.221-.437a.5.5,0,0,0-.892-.452l-.221.437a.043.043,0,0,1-.077,0l-1.652-3.259a1.826,1.826,0,0,0,.187-.308,7.8,7.8,0,0,0,3.007,0,1.823,1.823,0,0,0,.187.307l-.375.74a.5.5,0,1,0,.892.452l.332-.655a1.56,1.56,0,0,1,.184.041c.2.046.386.11.576.175a14.393,14.393,0,0,1,3.586,1.837c.311.22.624.462.934.726a8.618,8.618,0,0,1,2.259,2.992,8.159,8.159,0,0,1,.678,2.435H80.44Z" transform="translate(-79.398 0)"/></g></g></g></g></svg>