<svg xmlns="http://www.w3.org/2000/svg" width="60" height="60" viewBox="0 0 60 60"><g transform="translate(-379.945 -100.231)"><circle cx="30" cy="30" r="30" transform="translate(379.945 100.232)" fill="#fff1e8"/><g transform="translate(376.056 96.333)"><path d="M338.246,305.818l-1.66-2.31a.44.44,0,0,0-.715,0l-1.657,2.306a.378.378,0,0,0-.023.035,2.119,2.119,0,0,0,.012,2.144,2.349,2.349,0,0,0,2.028,1.18h0a2.349,2.349,0,0,0,2.03-1.185,2.108,2.108,0,0,0,.006-2.136Q338.258,305.835,338.246,305.818Zm-.748,1.733a1.453,1.453,0,0,1-2.532,0,1.232,1.232,0,0,1-.024-1.246l1.286-1.79,1.29,1.8a1.223,1.223,0,0,1-.021,1.237Z" transform="translate(-295.114 -266.45)" fill="#f08f28"/><path d="M33.893,19a14.938,14.938,0,0,0-4.56.708.438.438,0,0,0-.177.057A14.939,14.939,0,1,0,33.893,19ZM19.873,33.9a14.043,14.043,0,0,1,9.383-13.238l7.986,8.645a7.167,7.167,0,0,1,1.449,2.265,2.814,2.814,0,0,0-1.377,2.66A2.81,2.81,0,0,0,38.7,36.894a7.193,7.193,0,0,1-10.763,3.282l0,0A7.182,7.182,0,0,1,25.113,36.3a.44.44,0,1,0-.844.251A8.062,8.062,0,0,0,27.157,40.7c-.469,1.5-.053,3.3.317,4.909.068.3.134.582.193.859a14.055,14.055,0,0,1-7.8-12.569Zm19.7.925a.44.44,0,0,0-.436.382,7.089,7.089,0,0,1-.166.842,2.51,2.51,0,0,1-.005-3.631,7.291,7.291,0,0,1,.2,1.095.44.44,0,0,0,.438.4h.3a.458.458,0,1,1,0,.917Zm4.231,8.989a14.049,14.049,0,0,1-15.155,3.1c-.084-.477-.2-.974-.319-1.5a10.064,10.064,0,0,1-.4-4.2A8.071,8.071,0,0,0,39.668,36.8a.436.436,0,0,0,.059-.185,8.038,8.038,0,0,0,.224-.911,1.339,1.339,0,0,0,.041-2.673,8.107,8.107,0,0,0-.264-1.162.437.437,0,0,0-.074-.227,8.012,8.012,0,0,0-1.769-2.935l-7.7-8.334A14.024,14.024,0,0,1,43.806,43.813Z" fill="#f08f28"/></g></g></svg>