<svg xmlns="http://www.w3.org/2000/svg" width="33.55" height="33.801" viewBox="0 0 33.55 33.801"><g transform="translate(-1.9 0)"><path d="M35,327.138c2.029.173,4.082.26,6.1.26s4.073-.088,6.1-.26a1.22,1.22,0,0,0,1.1-1.115h0c.143-1.866.226-3.763.249-5.638a2.127,2.127,0,0,0-.727-1.63,2.153,2.153,0,0,0-1.733-.508,12.446,12.446,0,0,1-5.65-.838c-1.806-.567-3.512-1.1-5.222-.643a2.139,2.139,0,0,0-1.578,2.048c-.014,2.4.072,4.828.255,7.208A1.22,1.22,0,0,0,35,327.138Zm-.365-8.318a1.146,1.146,0,0,1,.845-1.1,4.237,4.237,0,0,1,1.108-.14,12.436,12.436,0,0,1,3.56.772,13.412,13.412,0,0,0,6.091.872,1.163,1.163,0,0,1,.937.274,1.123,1.123,0,0,1,.389.872c-.022,1.854-.105,3.73-.246,5.575a.227.227,0,0,1-.2.2c-2,.17-4.027.257-6.019.257s-4.018-.086-6.019-.257a.227.227,0,0,1-.2-.2C34.706,323.593,34.621,321.2,34.635,318.82Z" transform="translate(-29.647 -295.691)" fill="#f08f28"/><path d="M33.754,16.718H32.132a.5.5,0,1,0,0,.99h1.622a.706.706,0,0,1,.5,1.205.7.7,0,0,1-.5.206H18.005a.706.706,0,0,1-.5-1.205.7.7,0,0,1,.5-.206H30.153a.5.5,0,1,0,0-.99H27.818v-.661a7.623,7.623,0,1,0-3.876-.014v.675H20.391A5.385,5.385,0,0,0,18.784,14.7c-.027-.586-.059-1.175-.094-1.755a2.946,2.946,0,0,0-1.477-2.382,2.251,2.251,0,0,0-.79-1.608A5.218,5.218,0,0,0,14.563,7.9a.414.414,0,0,1-.283-.388,1.794,1.794,0,0,1,.373-1.089,4.008,4.008,0,0,0-.42-5.309A3.98,3.98,0,0,0,11.292,0,4.127,4.127,0,0,0,7.447,3.86a4.016,4.016,0,0,0,.83,2.595,1.744,1.744,0,0,1,.352,1.062.4.4,0,0,1-.077.236.425.425,0,0,1-.206.152A5.217,5.217,0,0,0,6.487,8.952,2.252,2.252,0,0,0,5.7,10.56a2.947,2.947,0,0,0-1.478,2.382c-.036.58-.067,1.168-.094,1.751a5.386,5.386,0,0,0-2.088,3.972,89.987,89.987,0,0,0-.019,9.581.5.5,0,0,0,.494.47h.026a.5.5,0,0,0,.469-.52,88.977,88.977,0,0,1,.018-9.475,4.386,4.386,0,0,1,4.111-4.144,73.042,73.042,0,0,1,8.636,0,4.384,4.384,0,0,1,3.5,2.143H18.005a1.7,1.7,0,0,0,0,3.392h1.943a89.132,89.132,0,0,1-.19,10.306,2.306,2.306,0,0,1-2.107,2.132,73.17,73.17,0,0,1-12.394,0A2.306,2.306,0,0,1,3.15,30.416c-.007-.085-.013-.17-.019-.256a.5.5,0,0,0-.988.068c.006.088.013.176.019.263a3.293,3.293,0,0,0,3.011,3.043c2.084.178,4.182.266,6.281.266s4.2-.089,6.281-.266a3.293,3.293,0,0,0,3.01-3.043c.226-2.956.306-5.943.239-8.906a5.333,5.333,0,0,0,1.784.981.425.425,0,0,1,.207.151.4.4,0,0,1,.078.237,1.744,1.744,0,0,1-.352,1.061,4.016,4.016,0,0,0-.83,2.595,4.127,4.127,0,0,0,3.845,3.857q.083,0,.165,0a4.009,4.009,0,0,0,3.2-6.427,1.794,1.794,0,0,1-.373-1.089.414.414,0,0,1,.283-.388,5.217,5.217,0,0,0,1.859-1.048,2.329,2.329,0,0,0,.777-1.408h2.13a1.7,1.7,0,0,0,0-3.392Zm-6.127-3.974a1.937,1.937,0,0,0-3.487-.016,4.415,4.415,0,1,1,6.178-4.048A4.445,4.445,0,0,1,27.627,12.744Zm-.8.838v3.135h-1.9V13.582a.948.948,0,0,1,1.9,0Zm-7.553-4.9a6.629,6.629,0,1,1,8.543,6.348V13.735a5.456,5.456,0,0,0,2.4-1.8,5.356,5.356,0,0,0,1.092-3.258,5.4,5.4,0,1,0-7.367,5.036v1.3A6.659,6.659,0,0,1,19.275,8.681ZM8.668,8.84a1.412,1.412,0,0,0,.686-.508,1.388,1.388,0,0,0,.265-.816A2.739,2.739,0,0,0,9.061,5.85,3.024,3.024,0,0,1,8.437,3.9a3.106,3.106,0,0,1,2.894-2.9,3.019,3.019,0,0,1,2.533,4.836,2.815,2.815,0,0,0-.574,1.687,1.4,1.4,0,0,0,.951,1.324,3.125,3.125,0,0,1,1.893,1.354l-.092-.012a44,44,0,0,0-9.177,0l-.091.012A3.126,3.126,0,0,1,8.668,8.84ZM7.078,13.587a5.339,5.339,0,0,0-1.931.485c.019-.358.039-.715.061-1.07A1.963,1.963,0,0,1,6.97,11.168a43,43,0,0,1,8.97,0A1.963,1.963,0,0,1,17.7,13c.022.355.042.714.061,1.073a5.327,5.327,0,0,0-1.931-.489,74.039,74.039,0,0,0-8.754,0ZM28.666,21.63a1.4,1.4,0,0,0-.951,1.324,2.816,2.816,0,0,0,.574,1.687,3.019,3.019,0,0,1-2.533,4.836,3.106,3.106,0,0,1-2.894-2.9,3.024,3.024,0,0,1,.624-1.954,2.74,2.74,0,0,0,.557-1.666,1.389,1.389,0,0,0-.265-.817,1.412,1.412,0,0,0-.686-.507c-1.082-.372-1.8-.939-1.951-1.52h9.477c-.15.581-.869,1.148-1.952,1.52Z" transform="translate(0 0)" fill="#f08f28"/><path d="M379.367,408.845a.5.5,0,1,0,.5.855l.025-.014a.5.5,0,0,0-.5-.855Z" transform="translate(-352.318 -381.776)" fill="#f08f28"/><path d="M390.217,392.5a.494.494,0,0,0,.25-.068l.024-.014a.5.5,0,0,0-.5-.855l-.025.014a.5.5,0,0,0,.251.923Z" transform="translate(-362.217 -365.647)" fill="#f08f28"/><path d="M369.344,392.236a.493.493,0,0,0,.25-.068l.025-.014a.5.5,0,0,0-.5-.855l-.024.014a.5.5,0,0,0,.251.923Z" transform="translate(-342.722 -365.402)" fill="#f08f28"/><path d="M170.157,54.392v.028a.5.5,0,0,0,.492.5h0a.5.5,0,0,0,.5-.492V54.4a.5.5,0,0,0-.492-.5h0A.5.5,0,0,0,170.157,54.392Z" transform="translate(-157.149 -50.342)" fill="#f08f28"/><path d="M161.234,36.977h0a.5.5,0,0,0,.5-.492v-.028a.5.5,0,0,0-.492-.5h0a.5.5,0,0,0-.5.492v.028A.5.5,0,0,0,161.234,36.977Z" transform="translate(-148.355 -33.584)" fill="#f08f28"/><path d="M150.33,54.777h0a.5.5,0,0,0,.5-.492v-.028a.5.5,0,0,0-.492-.5h0a.5.5,0,0,0-.5.492v.028A.5.5,0,0,0,150.33,54.777Z" transform="translate(-138.171 -50.209)" fill="#f08f28"/></g></svg>