<svg xmlns="http://www.w3.org/2000/svg" width="29.066" height="29.095" viewBox="0 0 29.066 29.095"><g transform="translate(0.248 0.25)"><path d="M24.189,18.221c2.458-.214,4.379-1.9,4.379-3.938s-1.92-3.724-4.379-3.938a10.7,10.7,0,0,0-5.053-5.552,4.852,4.852,0,0,0-9.7,0,10.7,10.7,0,0,0-5.053,5.552C1.922,10.559,0,12.243,0,14.283s1.921,3.724,4.379,3.938a10.765,10.765,0,0,0,3.959,4.9,9.168,9.168,0,0,0-3.067,4.343.837.837,0,1,0,1.591.521,7.566,7.566,0,0,1,3.1-3.966,10.671,10.671,0,0,0,8.807-.07A7.563,7.563,0,0,1,21.97,27.99a.837.837,0,1,0,1.591-.521,9.163,9.163,0,0,0-3.189-4.437,10.676,10.676,0,0,0,3.817-4.81Zm2.7-3.938c0,.978-.922,1.835-2.171,2.155a10.736,10.736,0,0,0,0-4.309C25.973,12.448,26.894,13.305,26.894,14.283ZM14.285,1.674a3.2,3.2,0,0,1,3.152,2.808,4.857,4.857,0,0,0-4.227,3.424,3.172,3.172,0,0,1-2.106-3,3.212,3.212,0,0,1,3.18-3.236ZM1.676,14.283c0-.978.922-1.835,2.171-2.155a10.736,10.736,0,0,0,0,4.309C2.6,16.118,1.676,15.261,1.676,14.283Zm16.742,7.978a8.984,8.984,0,0,1-8.7-15.711,4.837,4.837,0,0,0,4.058,3.187.837.837,0,0,0,.92-.747,3.169,3.169,0,0,1,3.4-2.842,8.984,8.984,0,0,1,.322,16.113Z" transform="translate(0)" fill="#f08f28" stroke="#fff1e8" stroke-width="0.5"/><path d="M141.586,203.071a.837.837,0,0,0,0-1.184,3.067,3.067,0,0,0-4.34,0,.837.837,0,0,0,1.184,1.184,1.394,1.394,0,0,1,1.973,0A.837.837,0,0,0,141.586,203.071Z" transform="translate(-129.356 -189.775)" fill="#f08f28" stroke="#fff1e8" stroke-width="0.5"/><path d="M293.586,201.887a3.067,3.067,0,0,0-4.34,0,.837.837,0,0,0,1.184,1.184,1.394,1.394,0,0,1,1.973,0,.837.837,0,0,0,1.184-1.184Z" transform="translate(-272.875 -189.774)" fill="#f08f28" stroke="#fff1e8" stroke-width="0.5"/><path d="M206.069,313.245a2.29,2.29,0,0,1-3.235,0,.837.837,0,1,0-1.184,1.184,3.966,3.966,0,0,0,5.6,0,.837.837,0,1,0-1.184-1.184Z" transform="translate(-190.166 -295.537)" fill="#f08f28" stroke="#fff1e8" stroke-width="0.5"/></g></svg>