<svg xmlns="http://www.w3.org/2000/svg" width="19.478" height="32.243" viewBox="0 0 19.478 32.243"><g transform="translate(-101.354 0)"><path d="M114.917,23.832a3.881,3.881,0,0,0,5.914-3.3,9.444,9.444,0,0,0-2.465-6.441,7.562,7.562,0,0,1-2.07-5.285,12.1,12.1,0,0,0-1.536-6.65,4.2,4.2,0,0,0-7.333,0,12.1,12.1,0,0,0-1.536,6.65,7.562,7.562,0,0,1-2.07,5.285,9.445,9.445,0,0,0-2.465,6.441,3.881,3.881,0,0,0,5.914,3.3,4.6,4.6,0,0,0,7.649,0ZM113.7,22.026a2.719,2.719,0,0,1-5.221,0,.945.945,0,0,0-1.662-.3,1.987,1.987,0,0,1-3.577-1.191,7.562,7.562,0,0,1,2.07-5.285,9.444,9.444,0,0,0,2.465-6.441c0-5.105,1.785-6.917,3.314-6.917s3.314,1.812,3.314,6.917a9.444,9.444,0,0,0,2.465,6.441,7.562,7.562,0,0,1,2.07,5.285,1.987,1.987,0,0,1-3.577,1.191.945.945,0,0,0-1.662.3Z" fill="#f08f28"/><path d="M110.591,420.341a.944.944,0,0,0-1.112-.46l-1.946.6a.945.945,0,1,0,.554,1.806l.057-.017a3.858,3.858,0,0,1-2.095,1.514.945.945,0,1,0,.448,1.835,5.767,5.767,0,0,0,3.389-2.572.945.945,0,0,0,1.667-.889Z" transform="translate(-3.724 -393.4)" fill="#f08f28"/><path d="M311.7,423.783a3.861,3.861,0,0,1-2.1-1.515l.057.017a.945.945,0,1,0,.554-1.806l-1.946-.6a.945.945,0,0,0-1.112.46l-.962,1.813a.945.945,0,0,0,1.667.889,5.768,5.768,0,0,0,3.389,2.572.945.945,0,0,0,.453-1.834Z" transform="translate(-191.836 -393.402)" fill="#f08f28"/></g></svg>