<svg xmlns="http://www.w3.org/2000/svg" width="29.171" height="29.17" viewBox="0 0 29.171 29.17"><g transform="translate(0 -0.015)"><g transform="translate(17.78 17.802)"><path d="M313.046,312.373a.572.572,0,0,0-.807,0l0,0a.57.57,0,0,0,.808.8l0,0A.568.568,0,0,0,313.046,312.373Z" transform="translate(-312.069 -312.206)" fill="#f08f28"/></g><g transform="translate(0 0.015)"><path d="M28.666,6.43a1.728,1.728,0,0,0-2-.319L23.074,2.519a1.725,1.725,0,0,0-2.758-2,8.487,8.487,0,0,0-2.5,6.041V7.922H16.451a8.552,8.552,0,0,0-8.543,8.543v1.362H6.546a8.487,8.487,0,0,0-6.041,2.5,1.725,1.725,0,0,0,2.439,2.439A5.094,5.094,0,0,1,4.419,21.74l3.026,3.026a5.061,5.061,0,0,1-.63,1.025l-.877-.877a.57.57,0,0,0-.806.806l.964.964a1.725,1.725,0,0,0,2.76,2,8.487,8.487,0,0,0,2.5-6.041V21.277H12.72a8.543,8.543,0,0,0,4.035-1.015.57.57,0,0,0-.54-1,7.4,7.4,0,0,1-3.5.879H11.358V18.967h1.363a6.239,6.239,0,0,0,6.232-6.232V6.559a7.355,7.355,0,0,1,2.168-5.235.585.585,0,0,1,.828.828A6.192,6.192,0,0,0,20.124,6.56v6.175a7.4,7.4,0,0,1-.925,3.58.57.57,0,1,0,1,.553,8.537,8.537,0,0,0,1.068-4.133V11.372h1.362a8.487,8.487,0,0,0,6.041-2.5,1.725,1.725,0,0,0,0-2.439ZM2.139,21.963a.585.585,0,0,1-.828-.828,7.355,7.355,0,0,1,5.235-2.168H7.908v1.171H6.546A6.192,6.192,0,0,0,2.139,21.963Zm3.509-.606a5.151,5.151,0,0,1,.9-.08H7.908v1.362a5.151,5.151,0,0,1-.08.9Zm7.073-3.53H11.358V16.465a5.126,5.126,0,0,1,.1-.99l2.256,2.256A5.126,5.126,0,0,1,12.72,17.827Zm2.2-.5-3.063-3.063a5.075,5.075,0,0,1,.644-1.012l3.431,3.431A5.08,5.08,0,0,1,14.92,17.328Zm1.809-1.458-3.414-3.414a5.068,5.068,0,0,1,1.028-.627l3.014,3.014A5.06,5.06,0,0,1,16.729,15.87Zm1.084-3.136a5.122,5.122,0,0,1-.077.877l-2.163-2.163a5.128,5.128,0,0,1,.877-.077h1.362v1.362Zm0-2.5H16.451a6.239,6.239,0,0,0-6.232,6.232v6.175h0A7.355,7.355,0,0,1,8.05,27.874a.585.585,0,1,1-.828-.828,6.192,6.192,0,0,0,1.825-4.407V16.465a7.412,7.412,0,0,1,7.4-7.4h1.362ZM22.354,3.41l3.42,3.42a5.059,5.059,0,0,1-1.026.629L21.725,4.437A5.059,5.059,0,0,1,22.354,3.41ZM21.263,6.559a5.153,5.153,0,0,1,.079-.894l2.177,2.177a5.148,5.148,0,0,1-.894.079H21.263Zm6.6,1.5a7.355,7.355,0,0,1-5.235,2.168H21.263V9.061h1.363a6.191,6.191,0,0,0,4.407-1.825.585.585,0,0,1,.828.828Z" transform="translate(0 -0.015)" fill="#f08f28"/></g><g transform="translate(3.534 23.315)"><path d="M62.993,409.145a.569.569,0,1,0,.167.4A.574.574,0,0,0,62.993,409.145Z" transform="translate(-62.02 -408.978)" fill="#f08f28"/></g></g></svg>