<svg xmlns="http://www.w3.org/2000/svg" width="24.816" height="35.452" viewBox="0 0 24.816 35.452"><path d="M107.336,40.2l4.136,1.182a.591.591,0,0,0,.691-.3l.591-1.182a.591.591,0,0,0-.111-.682l-2.278-2.278-2.792-6.98a3.407,3.407,0,0,0-4.24-1.967L99.226,29.36V29a3.421,3.421,0,0,0,2.435-1.009l2.5-2.5a1.72,1.72,0,1,0-2.648-2.171l-.331.5-1.8.9L97.9,22.849a2.366,2.366,0,0,0,1.326-2.123V18.954a2.362,2.362,0,0,0-3.563-2.035l-.379-.379a1.844,1.844,0,0,0-3.148,1.3v1.934a3.383,3.383,0,0,1-1.509,2.82.589.589,0,0,0-.244.349,3.08,3.08,0,0,0-1.355,1.78l-.843,2.949A4.809,4.809,0,0,0,88,29v.025a1.732,1.732,0,0,0,.514,1.237,1.751,1.751,0,0,0,1.243.511h.051a1.737,1.737,0,0,0,1.737-1.738v-.512l.948-2.37,1.416.354v20.67l-.528,1.057a.591.591,0,0,0,.111.682l2.363,2.363a.591.591,0,0,0,.418.173h1.182a.591.591,0,0,0,.583-.688l-.576-3.457,1.714-12.569,5.065-2.026,2.668,5.869v1.054a.591.591,0,0,0,.429.568Zm4.17-.451-.181.362-3.236-.925v-.371l1.656-.828ZM98.045,29.668l-2.954.422v-3.8l1.7,1.7a3.433,3.433,0,0,0,1.253.8Zm1.446-3.686,2.363-1.182a.591.591,0,0,0,.227-.2l.418-.626a.538.538,0,1,1,.829.679l-2.5,2.5a2.262,2.262,0,0,1-3.2,0L95.46,24.987a1.253,1.253,0,0,1-.369-.892,1.005,1.005,0,0,1,1.79-.628l1.884,2.355a.591.591,0,0,0,.726.159Zm-1.446-5.255a1.182,1.182,0,1,1-2.363,0h0a.591.591,0,0,0,.418-.173l1.009-1.009h.937Zm-.16-2.363H96.863a.591.591,0,0,0-.418.173l-.764.764v-.346a1.181,1.181,0,0,1,2.2-.591Zm-4.567,1.415V17.844a.662.662,0,0,1,1.131-.468l.379.379a2.348,2.348,0,0,0-.328,1.2v1.773A1.775,1.775,0,0,1,92.727,22.5h-.306A4.563,4.563,0,0,0,93.318,19.778Zm-1.038,5.1a.591.591,0,0,0-.692.354l-1.182,2.954a.591.591,0,0,0-.042.22v.626a.556.556,0,0,1-.556.556h-.051a.576.576,0,0,1-.41-.167.559.559,0,0,1-.166-.4V29a3.626,3.626,0,0,1,.14-1l.843-2.95a1.891,1.891,0,0,1,1.818-1.372h1.966a2.19,2.19,0,0,0-.04.415v1.192Zm4.238,25.389L94.627,48.38l.237-.474h1.5l.394,2.363Zm-.17-3.545H95.09V36.68h2.627Zm2.069-12.957a.591.591,0,0,0-.366.469L97.878,35.5H95.09V31.283l3.629-.518h0a.59.59,0,0,0,.1-.023l1.244-.415.959,2.4Zm6.666-2.059a.591.591,0,0,0-.757-.3l-2.2.881-.933-2.333,2.517-.839a2.225,2.225,0,0,1,2.77,1.285l2.635,6.588-1.329.664Z" transform="translate(-88 -15.999)" fill="#f08f28"/></svg>