<svg xmlns="http://www.w3.org/2000/svg" width="26.744" height="30.564" viewBox="0 0 26.744 30.564"><g transform="translate(-31.999)"><g transform="translate(31.999)"><path d="M117.013,221.423v-.608a1.432,1.432,0,0,0-.72-2.762l-1.268-1.454h1.51a.478.478,0,0,0,.478-.478,3.343,3.343,0,0,0-3.343-3.343.478.478,0,1,0,0,.955,2.39,2.39,0,0,1,2.34,1.91h-1.818l-2.659-3.049a1.429,1.429,0,0,0,.087-1.389l2.388-2.388a.478.478,0,0,0-.675-.675l-2.388,2.388a1.433,1.433,0,1,0-.166,2.652l4.668,5.352a1.433,1.433,0,0,0-.261.452H104.6a.477.477,0,0,0-.214.05L101.66,220.4a3.351,3.351,0,0,0-.331-.281,3.314,3.314,0,0,0-.911-.477.485.485,0,0,0-.154-.026.478.478,0,0,0-.153.93h0a2.388,2.388,0,1,1-2.785.983.477.477,0,1,0-.806-.512,3.343,3.343,0,1,0,5.737.151l2.452-1.226h8.465l-.693,2.063a.476.476,0,0,1-.452.325h-5.313a.476.476,0,0,1-.452-.325l-.263-.782a.478.478,0,1,0-.905.3l.263.782a1.43,1.43,0,0,0,1.358.977h5.313a1.43,1.43,0,0,0,1.358-.976l.8-2.367h1a1.44,1.44,0,0,0,.873.873v.608a2.388,2.388,0,1,0,.955,0Zm-6.686-9.122a.478.478,0,1,1,.478-.478A.478.478,0,0,1,110.327,212.3Zm6.208,6.686a.478.478,0,1,1-.478.478A.478.478,0,0,1,116.535,218.987Zm0,6.208a1.433,1.433,0,0,1-.478-2.783v1.351a.478.478,0,0,0,.955,0v-1.351a1.433,1.433,0,0,1-.478,2.783Z" transform="translate(-92.179 -195.586)" fill="#f08f28"/><path d="M128.52,403.675a.484.484,0,0,0,.159-.027.478.478,0,0,0-.159-.928.466.466,0,0,0-.159.027.478.478,0,0,0,.159.928Z" transform="translate(-122.309 -378.679)" fill="#f08f28"/><path d="M34.384,3.821a1.433,1.433,0,1,1,0-2.865H36.08l5.528,6.337,0,0a1.235,1.235,0,0,0-.636,1.415l2.307,9.229a4.054,4.054,0,0,0,3.938,3.075H51.1a.478.478,0,1,0,0-.955H47.213A3.1,3.1,0,0,1,44.2,17.707L41.894,8.478A.3.3,0,0,1,42.4,8.2l5.444,6.241c.006.007.013.014.02.02l.015.015.012.01.027.022.01.007.031.021.011.006.033.017.013.005.032.013.015,0,.031.009.017,0,.031,0,.018,0,.032,0h.041l.021,0,.024,0,.019,0,.025-.006.017,0,.025-.008.016-.006.025-.011.017-.009.022-.012.022-.014.016-.01c.012-.009.025-.018.036-.028a.478.478,0,0,0,.046-.674l-2.8-3.214L43.128,7.581l0,0L36.657.164A.478.478,0,0,0,36.3,0H34.386a2.388,2.388,0,0,0,0,4.776h0a.478.478,0,1,0,0-.955Z" transform="translate(-31.999)" fill="#f08f28"/><circle cx="0.478" cy="0.478" r="0.478" transform="translate(3.818 3.821)" fill="#f08f28"/><path d="M129.433,434.865A1.433,1.433,0,1,0,128,433.433,1.433,1.433,0,0,0,129.433,434.865Zm0-1.91a.478.478,0,1,1-.478.478A.478.478,0,0,1,129.433,432.955Z" transform="translate(-122.269 -406.211)" fill="#f08f28"/></g></g></svg>