<svg xmlns="http://www.w3.org/2000/svg" width="23.523" height="37.683" viewBox="0 0 23.523 37.683"><g transform="translate(-96.193)"><g transform="translate(110.946 27.729)"><g transform="translate(0)"><path d="M297.192,376.758h-.006a.555.555,0,1,0,.006,0Z" transform="translate(-296.637 -376.758)" fill="#f08f28"/></g></g><g transform="translate(96.193)"><path d="M117.594,23.468l-5.4-2.314a1.216,1.216,0,0,1-.735-1.043,16.54,16.54,0,0,0,6.915-3.829.553.553,0,0,0,.052-.721,10.139,10.139,0,0,1-1.66-5.57V8.812a8.812,8.812,0,0,0-17.624,0v1.18a10.14,10.14,0,0,1-1.66,5.569.552.552,0,0,0,.051.721,16.54,16.54,0,0,0,6.915,3.829,1.216,1.216,0,0,1-.735,1.043l-5.4,2.314a3.5,3.5,0,0,0-2.122,3.219v8.085A2.915,2.915,0,0,0,99.1,37.683h5.31a2.325,2.325,0,0,0,2.322-2.322c0-.013,0-.025,0-.038h2.438c0,.013,0,.025,0,.038a2.325,2.325,0,0,0,2.322,2.322h5.31a2.915,2.915,0,0,0,2.912-2.912V26.686A3.5,3.5,0,0,0,117.594,23.468Zm-4.384-.678,1.862.8V27.04a4.66,4.66,0,0,0-2.988-1.08h-.261A5.274,5.274,0,0,0,113.21,22.79Zm.643,4.743A2.4,2.4,0,0,1,109.1,27.1c0-.013,0-.025,0-.038h2.987A3.555,3.555,0,0,1,113.853,27.533Zm3.41-11.732a15.977,15.977,0,0,1-5.807,3.165v-1.2a6.452,6.452,0,0,0,2.95-5.416V9.369c.4,0,.822-.024,1.256-.061v.684A11.354,11.354,0,0,0,117.264,15.8ZM107.955,1.1a7.718,7.718,0,0,1,7.684,7.1,12.351,12.351,0,0,1-7.221-1.334,7.945,7.945,0,0,1-2.376-1.92.552.552,0,0,0-.94.078,5.624,5.624,0,0,1-3.269,2.812,7.569,7.569,0,0,1-1.561.375A7.718,7.718,0,0,1,107.955,1.1ZM98.646,15.8a11.355,11.355,0,0,0,1.6-5.81V9.329a7.417,7.417,0,0,0,5.446-3.121A10,10,0,0,0,107.822,7.8a12.611,12.611,0,0,0,5.48,1.543v3.009a5.348,5.348,0,0,1-10.7,0v-1.77a.552.552,0,1,0-1.1,0v1.77a6.452,6.452,0,0,0,2.95,5.416v1.2A15.976,15.976,0,0,1,98.646,15.8Zm5.143,6.522.361-.155a2.319,2.319,0,0,0,1.407-2.134V18.341a6.45,6.45,0,0,0,4.8,0v1.693a2.319,2.319,0,0,0,1.407,2.134l.362.155c0,.019,0,.039,0,.058a4.172,4.172,0,0,1-2.032,3.578h-4.271a4.172,4.172,0,0,1-2.032-3.578C103.787,22.362,103.789,22.343,103.789,22.323Zm-2.952,1.265,1.862-.8a5.274,5.274,0,0,0,1.387,3.169h-.261a4.66,4.66,0,0,0-2.988,1.08Zm3.578,12.991H99.1A1.81,1.81,0,0,1,97.3,34.771V26.686a2.4,2.4,0,0,1,1.453-2.2l.983-.421v4.308a4.676,4.676,0,0,0,.616,5.408,1.133,1.133,0,0,0,.843.367h3.224a1.218,1.218,0,0,1,0,2.436Zm1.8-6.452a10.014,10.014,0,0,0,3.47,3.784,2.329,2.329,0,0,0-.209.308h-3.037a2.332,2.332,0,0,0-.38-.5,2.307,2.307,0,0,0-1.642-.68h-3.224c-.015,0-.024,0-.023,0a3.578,3.578,0,0,1,2.657-5.974h1.3a10.159,10.159,0,0,0,.242.992.552.552,0,0,0,1.058-.314c-.077-.258-.133-.487-.174-.678h1.745c0,.013,0,.025,0,.038a3.5,3.5,0,0,0,6.793,1.2,3.573,3.573,0,0,1-.04,4.735.055.055,0,0,1-.026.005h-3.225a2.31,2.31,0,0,0-.852.163,8.919,8.919,0,0,1-3.455-3.594.552.552,0,0,0-.974.519Zm12.4,4.644h0a1.81,1.81,0,0,1-1.808,1.808h-5.31a1.218,1.218,0,1,1,0-2.436h3.225a1.133,1.133,0,0,0,.843-.367,4.677,4.677,0,0,0,.615-5.407V24.061l.983.421a2.4,2.4,0,0,1,1.453,2.2v8.085Z" transform="translate(-96.193)" fill="#f08f28"/></g><g transform="translate(103.863 10.326)"><g transform="translate(0)"><path d="M203.048,140.4a.552.552,0,0,0-.77.127.6.6,0,0,1-.873,0,.552.552,0,1,0-.9.644,1.7,1.7,0,0,0,2.667,0A.552.552,0,0,0,203.048,140.4Z" transform="translate(-200.404 -140.298)" fill="#f08f28"/></g></g><g transform="translate(105.633 13.57)"><g transform="translate(0)"><path d="M228.936,184.535a.552.552,0,0,0-.781,0,2.425,2.425,0,0,1-2.763,0,.552.552,0,1,0-.777.785,3.475,3.475,0,0,0,4.316,0A.552.552,0,0,0,228.936,184.535Z" transform="translate(-224.452 -184.371)" fill="#f08f28"/></g></g><g transform="translate(109.173 10.326)"><path d="M275.193,140.4a.552.552,0,0,0-.77.127.6.6,0,0,1-.873,0,.552.552,0,1,0-.9.644,1.7,1.7,0,0,0,2.667,0A.552.552,0,0,0,275.193,140.4Z" transform="translate(-272.55 -140.298)" fill="#f08f28"/></g></g></svg>