<svg xmlns="http://www.w3.org/2000/svg" width="30.658" height="31.178" viewBox="0 0 30.658 31.178"><g transform="translate(-3 -2)"><path d="M32.1,15.51V5.018L30.892,2H12.521L11.314,5.018v5.3H10.275V2H7.157V3.039H3V9.275H7.157v5.716a1.559,1.559,0,0,0,3.118,0V13.432h1.039V15.51a1.559,1.559,0,1,0,0,3.118v8.314h8.314v1.039H11.314V31.1h1.135a1.541,1.541,0,0,0-.1.52,1.559,1.559,0,0,0,3.118,0,1.541,1.541,0,0,0-.1-.52H28.038a1.541,1.541,0,0,0-.1.52,1.559,1.559,0,0,0,3.118,0,1.541,1.541,0,0,0-.1-.52H32.1V27.982H23.785V26.942H32.1V18.628a1.559,1.559,0,0,0,0-3.118ZM12.353,5.218l.871-2.178H30.189l.871,2.178v6.136h-3.1a2.6,2.6,0,0,0,.486-2.2,2.719,2.719,0,0,0-1.942-1.946,3.206,3.206,0,0,0-2.554.717l-.168-.335V6.677a1.559,1.559,0,1,0-3.118,0V7.716a.52.52,0,0,0,.055.232l.143.287H19.515l-.43-1.715c-.261-.815-.929-.883-1.535-.883H16.51a1.574,1.574,0,0,0-1.107.5,1.51,1.51,0,0,0-.452,1.075A1.48,1.48,0,0,0,16.51,8.755h.114l.421,1.685a2.414,2.414,0,0,0,.468.913h-5.16Zm5.7,4.97-.52-2.079a.52.52,0,0,0-.5-.393h-.52c-.354,0-.509-.16-.52-.534a.492.492,0,0,1,.156-.322.563.563,0,0,1,.364-.184H17.55c.494,0,.508.043.535.126l.52,2.079a.52.52,0,0,0,.5.393h2.6a.52.52,0,0,0,.468-.752l-.468-.93V6.677a.52.52,0,1,1,1.039,0V7.716a.52.52,0,0,0,.055.232l.52,1.039a.52.52,0,0,0,.831.135,2.689,2.689,0,0,1,2.107-.9,1.663,1.663,0,0,1,1.176,1.172,1.547,1.547,0,0,1-.3,1.338,1.638,1.638,0,0,1-1.268.623H19.628A1.653,1.653,0,0,1,18.054,10.188ZM4.039,8.236V4.079H7.157V8.236ZM8.2,3.039H9.236v7.275H8.2ZM9.236,14.991a.52.52,0,1,1-1.039,0V13.432H9.236ZM8.2,12.393V11.353h3.118v1.039Zm4.157,0H31.06V15.51H30.021V13.432H25.864V15.51H24.825V13.432h-5.2V15.51H12.353ZM28.982,15.51H26.9V14.471h2.079Zm-5.2,0H20.668V14.471h3.118ZM12.353,18.628h7.275v3.118H12.353Zm0,7.275V22.785h7.275V25.9Zm2.079,5.716a.52.52,0,1,1-.52-.52A.52.52,0,0,1,14.432,31.619Zm15.589,0a.52.52,0,1,1-.52-.52A.52.52,0,0,1,30.021,31.619Zm1.039-2.6V30.06H12.353V29.021Zm-8.314-1.039H20.668V18.628h2.079ZM31.06,25.9H23.785V18.628H31.06ZM32.1,17.589H11.314a.52.52,0,0,1,0-1.039H32.1a.52.52,0,0,1,0,1.039Z" fill="#f08f28"/><path d="M24,44h4.157v1.039H24Z" transform="translate(-10.088 -20.175)" fill="#f08f28"/></g></svg>