<svg xmlns="http://www.w3.org/2000/svg" width="124.002" height="122.537" viewBox="0 0 124.002 122.537"><g transform="translate(-16 -16)"><rect width="5" height="4" transform="translate(59 30.206)"/><path d="M134.2,68.878a23.462,23.462,0,0,0-9.235-37.349L111.81,26.471a2.067,2.067,0,0,0-2.747,1.428l-.482,1.926a9.079,9.079,0,0,0,.626,6.115A20.116,20.116,0,0,0,97.071,49.2l-.14.491-7.454,3.727a2.067,2.067,0,0,0-.8,2.995l3.626,5.439-1.643,6.568a9.033,9.033,0,0,0-.264,2.157,8.915,8.915,0,0,0,6.76,8.659l1.507.377v5.829l-2.5-.7-.011,0L73.24,78.324l-2.751-5.5a7.221,7.221,0,0,0-2.079-9.9l-1.932-1.288-2.372-1.581-2.638-5.273V48.705A13.438,13.438,0,0,0,71.8,35.634v-6.2a13.433,13.433,0,1,0-26.867,0v6.2a13.364,13.364,0,0,0,1.25,5.662L31.153,50.062a13.882,13.882,0,0,0-6.519,15.164,8.233,8.233,0,0,0-.368,2.441V74.9l-7.44,5.58A2.067,2.067,0,0,0,16,82.134v8.8a5.67,5.67,0,0,0,11.049,1.793l.975-2.924L32.8,87.41a14.376,14.376,0,0,0,7.929-11.534,13.874,13.874,0,0,0,6.1-2.051l3.124-1.952,7.887,22.673a12.472,12.472,0,0,0,7.791,7.689l22.013,7.339.01,0,4.612,1.537L84.29,137.333l3.954,1.2,7.949-26.115,12.578,4.193a12.736,12.736,0,0,0,16.763-12.083v-1.906a12.778,12.778,0,0,0-5.067-10.158h1.872a32.391,32.391,0,0,1,3.97,24.368l-4.854,20.625,4.023.947,4.854-20.626a36.533,36.533,0,0,0-4.8-27.992V78.777ZM112.518,31.172l10.96,4.216a19.329,19.329,0,0,1,7.608,30.768l-6.571,7.51-2.788-11.152a7.15,7.15,0,0,0-7.2-12.318l-.3.153-.532-1.33a7.149,7.149,0,0,1,2.661-8.565,2.067,2.067,0,0,0-.493-3.68,5.017,5.017,0,0,1-3.338-5.6ZM66.875,70.79a3.093,3.093,0,0,1-4.189.717l-.8-.535,3.878-4.847.355.237a3.093,3.093,0,0,1,.759,4.428Zm-13.207-5.3a10.312,10.312,0,0,1-4.6-8.6V47a4.152,4.152,0,0,1,3.973-4.127,4.454,4.454,0,0,1,4.288,4.216c0,.073.006.145.006.218V59.4a2.067,2.067,0,0,0,.92,1.719l4.056,2.7-3.878,4.847ZM44.934,47v1.908l-.768.307a2.067,2.067,0,0,0-1.184,2.6l1.97,5.664a14.462,14.462,0,0,0,.432,3.008L38.693,50.449l6.244-3.643C44.937,46.871,44.934,46.935,44.934,47Zm4.133-17.567a9.3,9.3,0,0,1,18.6,0v6.2a9.241,9.241,0,0,1-6.617,8.91A8.531,8.531,0,0,0,58.923,41.1a8.118,8.118,0,0,0-5.881-2.364h-.019l-.129,0a8.577,8.577,0,0,0-3.067.572,9.257,9.257,0,0,1-.759-3.671ZM36.667,74.47a10.278,10.278,0,0,1-5.712,9.243l-5.546,2.773a2.065,2.065,0,0,0-1.036,1.195l-1.246,3.737a1.536,1.536,0,0,1-2.994-.486V83.167l7.44-5.58a2.067,2.067,0,0,0,.827-1.653V67.667a4.133,4.133,0,0,1,8.267,0ZM40.8,71.709V67.667A8.263,8.263,0,0,0,28.543,60.43a9.787,9.787,0,0,1,4.693-6.8l1.881-1.1L46.288,69.292l-1.643,1.026A9.746,9.746,0,0,1,40.8,71.709ZM61.751,93.189,53.9,70.616l6.5,4.33a7.222,7.222,0,0,0,6.851.63l2.708,5.416a2.067,2.067,0,0,0,1.292,1.066l21.689,6.073-5.907,16.878-20.081-6.7a8.312,8.312,0,0,1-5.193-5.125Zm59.65,11.343a8.6,8.6,0,0,1-11.322,8.161l-19.132-6.377,5.975-17.069,18.2,5.1a8.631,8.631,0,0,1,6.283,8.284Zm-12.411-16.2L102.8,86.6V79.615a4.127,4.127,0,0,0-3.13-4.009l-1.506-.377a4.788,4.788,0,0,1-3.63-4.65,4.882,4.882,0,0,1,.142-1.163l.716-2.861a13.075,13.075,0,0,0,8.333-1.173l-1.849-3.7a9.023,9.023,0,0,1-5.479.849l.141-.566a2.067,2.067,0,0,0-.285-1.648l-2.835-4.252,6.173-3.087a2.067,2.067,0,0,0,1.063-1.28l.39-1.364a15.987,15.987,0,0,1,10.317-10.782,11.305,11.305,0,0,0-1.512,11l1.366,3.415a2.067,2.067,0,0,0,2.843,1.081l2.314-1.157a3.017,3.017,0,0,1,2.7,5.4l-.661.33a2.067,2.067,0,0,0-1.081,2.35L121.4,78.255V88.334Z"/><rect width="4" height="4" transform="translate(103 51.206)"/></g></svg>