<svg xmlns="http://www.w3.org/2000/svg" width="25.292" height="36.132" viewBox="0 0 25.292 36.132"><g transform="translate(-11 -2)"><path d="M23.646,38.132c4.723,0,12.646-2.738,12.646-21.077C36.292,7.909,31.328,2,23.646,2S11,7.909,11,17.055C11,35.394,18.923,38.132,23.646,38.132Zm-9.594-8.7A35.281,35.281,0,0,1,12.2,17.055C12.2,8.512,16.588,3.2,23.646,3.2S35.088,8.512,35.088,17.055q0,1.286-.056,2.493c-.438,1.341-3.489,10.048-9.848,13.227l.538,1.078c4.448-2.224,7.323-6.789,8.937-10.171-1.222,8.6-5.026,13.245-11.013,13.245-3.749,0-6.64-1.825-8.579-5.3,1.951,1.313,4.938,3.093,7.275,3.483l.2-1.188c-2.976-.5-7.364-3.652-8.489-4.492Z" fill="#f08f28"/><path d="M25.409,21.409A2.409,2.409,0,0,0,27.818,19h-1.2A1.2,1.2,0,1,1,24.2,19H23A2.409,2.409,0,0,0,25.409,21.409Z" transform="translate(-4.774 -6.763)" fill="#f08f28"/><path d="M35.409,21.409A2.409,2.409,0,0,0,37.818,19h-1.2A1.2,1.2,0,1,1,34.2,19H33A2.409,2.409,0,0,0,35.409,21.409Z" transform="translate(-8.752 -6.763)" fill="#f08f28"/><path d="M38,25h1.807v1.2H38Z" transform="translate(-10.741 -9.149)" fill="#f08f28"/><path d="M23,25h1.807v1.2H23Z" transform="translate(-4.774 -9.149)" fill="#f08f28"/><path d="M29,24.807A1.807,1.807,0,1,0,30.807,23,1.807,1.807,0,0,0,29,24.807Zm1.807-.6a.6.6,0,1,1-.6.6A.6.6,0,0,1,30.807,24.2Z" transform="translate(-7.16 -8.354)" fill="#f08f28"/><path d="M22.647,28.9a12.818,12.818,0,0,0,8.225-3.078c2.641-2.4,3.979-6.033,3.979-10.795v-.6A8.431,8.431,0,1,0,17.99,14.4c-.025.581-.533,14.283,6.957,18.029l.538-1.078A8.088,8.088,0,0,1,22.647,28.9ZM28.723,7.58,29.2,9H28.059l-.573-1.719a7.157,7.157,0,0,1,1.238.3Zm-4.606,0a7.157,7.157,0,0,1,1.238-.3L24.782,9H23.642ZM22.612,8.3l-.373,1.12a.6.6,0,0,0,.568.791h2.409a.6.6,0,0,0,.572-.412l.633-1.9.633,1.9a.6.6,0,0,0,.571.412h2.409a.6.6,0,0,0,.571-.792l-.373-1.12a7.226,7.226,0,1,1-7.623,0Zm-.754,19.391a23.107,23.107,0,0,1-2.449-8.593,8.41,8.41,0,0,0,13.743.39,10.605,10.605,0,0,1-3.078,5.44,12.031,12.031,0,0,1-8.219,2.762Z" transform="translate(-2.774 -1.583)" fill="#f08f28"/><path d="M18,45h1.2v1.2H18Z" transform="translate(-2.785 -17.106)" fill="#f08f28"/><path d="M16.2,33.928l-1.2.087a15.311,15.311,0,0,0,1.274,5.661l1.064-.564A14.607,14.607,0,0,1,16.2,33.928Z" transform="translate(-1.591 -12.701)" fill="#f08f28"/><path d="M47,30h1.2v1.2H47Z" transform="translate(-14.321 -11.139)" fill="#f08f28"/><path d="M45,34h1.2v1.2H45Z" transform="translate(-13.525 -12.73)" fill="#f08f28"/></g></svg>